<svg xmlns="http://www.w3.org/2000/svg" viewBox="0 0 71.7 110.93">

<defs><style>.cls-1{isolation:isolate;}.cls-2{fill:#c4c6c8;opacity:0.6;}.cls-10,.cls-13,.cls-14,.cls-15,.cls-2,.cls-6{mix-blend-mode:multiply;}.cls-3{fill:#1e1e1c;}.cls-4{fill:#505250;}.cls-5{fill:#231f20;}.cls-6{opacity:0.4;}.cls-7{fill:#2a2b2b;}.cls-14,.cls-16,.cls-8{fill:#80b1d7;}.cls-9{fill:#1d71b8;}.cls-10,.cls-11{fill:#75b849;}.cls-11,.cls-13,.cls-14,.cls-15,.cls-16{opacity:0.5;}.cls-11,.cls-16{mix-blend-mode:screen;}.cls-12{fill:#fff;}.cls-15{fill:#3e742f;}</style></defs><title>Bin</title><g class="cls-1"><g id="Calque_1" data-name="Calque 1"><ellipse class="cls-2" cx="35.85" cy="109.63" rx="31.97" ry="1.3"/><rect class="cls-3" x="9.75" y="98.95" width="52.46" height="3.98"/><path class="cls-4" d="M12.2,107.76a2,2,0,0,1-2,2h0a2,2,0,0,1-2-2V92.34a2,2,0,0,1,2-2h0a2,2,0,0,1,2,2Z"/><path class="cls-5" d="M10.17,110a2.25,2.25,0,0,1-2.25-2.25V92.34a2.25,2.25,0,1,1,4.49,0v15.42A2.24,2.24,0,0,1,10.17,110Zm0-19.5a1.83,1.83,0,0,0-1.83,1.83v15.42a1.83,1.83,0,1,0,3.65,0V92.34A1.83,1.83,0,0,0,10.17,90.51Z"/><g class="cls-6"><path class="cls-7" d="M8.09,105.18v2.58a2,2,0,1,0,4.07,0v-2.58Z"/></g><g class="cls-6"><path class="cls-7" d="M10.17,90.3h0v19.5h0a2,2,0,0,0,2-2V92.34A2,2,0,0,0,10.17,90.3Z"/></g><path class="cls-4" d="M63.57,107.76a2,2,0,0,1-2,2h0a2,2,0,0,1-2-2V92.34a2,2,0,0,1,2-2h0a2,2,0,0,1,2,2Z"/><path class="cls-5" d="M61.53,110a2.24,2.24,0,0,1-2.24-2.25V92.34a2.25,2.25,0,1,1,4.49,0v15.42A2.25,2.25,0,0,1,61.53,110Zm0-19.5a1.83,1.83,0,0,0-1.83,1.83v15.42a1.83,1.83,0,1,0,3.66,0V92.34A1.83,1.83,0,0,0,61.53,90.51Z"/><g class="cls-6"><path class="cls-7" d="M59.49,105.18v2.58a2,2,0,1,0,4.08,0v-2.58Z"/></g><g class="cls-6"><path class="cls-7" d="M61.28,90.33a2,2,0,0,0-1.79,2v15.42a2,2,0,0,0,1.79,2Z"/></g><path class="cls-8" d="M2,22.22c1.15,8,9.83,68.24,11.38,76.19a9.63,9.63,0,0,0,9.69,8.16H48.64a9.62,9.62,0,0,0,9.69-8.16c1.56-8,10.24-68.2,11.39-76.19Z"/><path class="cls-9" d="M48.78,106.79H22.92a9.88,9.88,0,0,1-9.76-8.34c-1.51-7.74-9.75-64.84-11.38-76.2a.22.22,0,0,1,.05-.17A.17.17,0,0,1,2,22H69.72a.18.18,0,0,1,.15.07.22.22,0,0,1,0,.17c-1,7-9.82,68.23-11.38,76.2A9.87,9.87,0,0,1,48.78,106.79Zm-.14-.43h.14a9.32,9.32,0,0,0,9.35-8c1.54-7.88,10.19-67.94,11.34-75.94H2.22c1.72,11.9,9.85,68.26,11.35,75.94a9.32,9.32,0,0,0,9.35,8H48.64Z"/><rect class="cls-10" x="0.21" y="21.97" width="71.28" height="1.37"/><path class="cls-11" d="M20.09,96.62c-2.41-9.11-10-71.94-10-71.94L4.44,25c.21.62,9.79,67.68,9.79,67.68s1.68,8.06,2.78,9.78c2.62,4.12,15.6,3.09,20.13,3.2,0,0-8.12-.89-13.18-3.59A7.89,7.89,0,0,1,20.09,96.62Z"/><path class="cls-12" d="M35.87,49.76l.11.15c.49.67,1,1.35,1.43,2a5.52,5.52,0,0,1,.4.66l-1.46.65h0l-.21.11a12.22,12.22,0,0,0,1.49.65c.83.34,1.67.65,2.49,1a24.22,24.22,0,0,0,2.33.88h0a.31.31,0,0,1,.13,0c0-.09,0-.17.08-.25h0c.16-.51.33-1,.5-1.53s.4-1.18.61-1.77a2.62,2.62,0,0,1,.18-.56c.13-.35.24-.7.36-1l.28-.78h0a1.31,1.31,0,0,1,.08-.21v0a3.59,3.59,0,0,1-.51.2c-.4.19-.82.33-1.23.49-.39-.54-.77-1.07-1.15-1.62a13.47,13.47,0,0,0-1.24-1.58c-.19-.2-.48-.35-.69-.53a1,1,0,0,0-.49-.17c-1.25-.06-2.5,0-3.74.07-1,0-2-.06-3.07,0a2,2,0,0,0-1,.11,1.22,1.22,0,0,0-.37.27l0,0,0,0a26,26,0,0,0-2.51,2.93l-.84,1,.16.12h0c.8.51,1.54,1.14,2.3,1.7a22.24,22.24,0,0,0,2.17,1.58h0l.32.21.13-.22c.32-.56.69-1.1,1-1.65s.63-1.05,1-1.57A10.85,10.85,0,0,1,35.87,49.76Zm-3-2.54c-.22-.07-.56-.24-.8-.16s-.08,0-.23,0a0,0,0,0,1,0,0c.18,0,.3-.14.5-.12l.44.09a2.69,2.69,0,0,1,1,.48,10.29,10.29,0,0,1,2,2s0,.13-.08.09c-.29-.28-.52-.61-.82-.87s-.63-.58-1-.86A3.27,3.27,0,0,0,32.82,47.22Z"/><path class="cls-12" d="M48.2,60V60A28,28,0,0,0,47,56.3c-.15-.41-.28-.82-.43-1.23l-.18.07v0c-.85.41-1.78.72-2.65,1.08a21.63,21.63,0,0,0-2.48,1h0l-.36.16a1.59,1.59,0,0,1,.13.22c.31.57.58,1.16.88,1.74s.57,1.09.84,1.63a9.89,9.89,0,0,1,.73,1.59l-.18,0c-.82.07-1.65.12-2.48.16H40c.06-.53.13-1.06.2-1.59h0c0-.08,0-.16,0-.24a12.62,12.62,0,0,0-1.33.93c-.72.54-1.42,1.1-2.15,1.61s-1.33,1-2,1.54h0l-.09.1.17.19h0L36,66.56,37.15,68a2,2,0,0,1,.37.45l.72.84c.17.22.34.43.52.64v0l.14.18h0A2.35,2.35,0,0,1,39,69.6c.05-.44.14-.88.22-1.31.65-.06,1.31-.1,2-.15a13.32,13.32,0,0,0,2-.24c.27-.06.55-.23.81-.31a1.06,1.06,0,0,0,.41-.34c.68-1,1.26-2.15,1.87-3.23.5-.89,1.11-1.71,1.54-2.65a2.11,2.11,0,0,0,.41-.88A1.13,1.13,0,0,0,48.2,60Zm-.3.79a3.85,3.85,0,0,1-1.66,1.49,5.51,5.51,0,0,1-2.27.34c-.09,0,0-.13,0-.15a11.62,11.62,0,0,0,2.19-.43,4.52,4.52,0,0,0,1.69-1.28A0,0,0,1,1,47.9,60.83Z"/><path class="cls-12" d="M34.29,63c0-.13,0-.26,0-.38l-.24,0c-.66.06-1.31.07-2,.11l-1.83.12a9.31,9.31,0,0,1-1.75,0l.06-.18c.26-.78.54-1.57.84-2.34.09-.24.2-.47.31-.71.46.27.92.54,1.37.82v0l.22.11A14.65,14.65,0,0,0,31,59c-.2-.87-.43-1.73-.61-2.61S30,54.75,29.75,54h0a.69.69,0,0,1-.05-.13l-.25.08h0l-1.54.47-1.79.53a2.19,2.19,0,0,1-.57.16l-1.06.31-.79.23h0l-.21.06h0a4.53,4.53,0,0,1,.46.3c.38.22.74.48,1.11.73l-.66,1.86a11.72,11.72,0,0,0-.58,1.94,8.12,8.12,0,0,0,0,.86.92.92,0,0,0,.15.5c.67,1,1.47,2,2.21,3,.61.82,1.12,1.7,1.8,2.48a2.35,2.35,0,0,0,.65.73,1.09,1.09,0,0,0,.43.14h0a.05.05,0,0,0,0,0,27.28,27.28,0,0,0,3.84.36l1.29.11c0-.06,0-.13,0-.2h0c0-.94,0-1.92.07-2.86a21.79,21.79,0,0,0,0-2.68Zm-6-.17a6.78,6.78,0,0,1-2.69-.24c-.65-.2-1.55-.42-1.73-1.17,0,0,0,0,0,0,.33.68,1.28.9,2,1.06a18,18,0,0,0,2.44.22C28.38,62.65,28.35,62.78,28.28,62.79Z"/><g class="cls-13"><path class="cls-9" d="M2,22.22c.07.44.16,1.05.26,1.8H57.16s4.18.07,3.66,4.25L53,95s-.83,11.54-5.75,11.54h1.42a9.62,9.62,0,0,0,9.69-8.16c1.56-8,10.24-68.2,11.39-76.19Z"/></g><path class="cls-9" d="M49.82,1.75A4.36,4.36,0,0,0,46.53.21H25.17a4.36,4.36,0,0,0-3.29,1.54l-4.74,8.82L31.28,8.76h9.14l14.14,1.81Z"/><path class="cls-14" d="M17.14,10.78a.19.19,0,0,1-.17-.09.22.22,0,0,1,0-.22l4.74-8.82A4.57,4.57,0,0,1,25.16,0H46.53A4.55,4.55,0,0,1,50,1.63l4.76,8.84a.22.22,0,0,1,0,.22.19.19,0,0,1-.19.09L40.39,9H31.28L17.16,10.78ZM40.42,8.55l13.76,1.76L49.64,1.85h0A4.21,4.21,0,0,0,46.52.42H25.17a4.08,4.08,0,0,0-3.12,1.46l-4.54,8.43L31.26,8.55Z"/><path class="cls-8" d="M49.82,3.57A4.39,4.39,0,0,0,46.53,2H25.17a4.39,4.39,0,0,0-3.29,1.55l-4.74,7H54.56Z"/><path class="cls-9" d="M54.56,10.78H17.14a.21.21,0,0,1-.19-.11.24.24,0,0,1,0-.22l4.74-7a4.55,4.55,0,0,1,3.46-1.64H46.53A4.5,4.5,0,0,1,50,3.45l4.74,7a.22.22,0,0,1,0,.22A.21.21,0,0,1,54.56,10.78Zm-37-.42H54.17L49.65,3.68a4.26,4.26,0,0,0-3.13-1.45H25.17A4.24,4.24,0,0,0,22,3.69Z"/><path class="cls-9" d="M48.25,4.35A3.9,3.9,0,0,0,45.33,3h-19a3.9,3.9,0,0,0-2.92,1.37l-4.21,6.22H52.46Z"/><path class="cls-14" d="M52.46,10.78H19.24a.19.19,0,0,1-.18-.11.2.2,0,0,1,0-.22l4.2-6.21a4.06,4.06,0,0,1,3.09-1.46h19a4.06,4.06,0,0,1,3.09,1.45l4.21,6.22a.22.22,0,0,1,0,.22A.19.19,0,0,1,52.46,10.78Zm-32.82-.42H52.06l-4-5.89a3.76,3.76,0,0,0-2.76-1.28H26.37a3.64,3.64,0,0,0-2.75,1.29Z"/><polygon class="cls-15" points="21.71 6.93 19.24 10.57 52.46 10.57 49.99 6.93 21.71 6.93"/><path class="cls-8" d="M37.84,19.31l31.73-1-5.09-7.14a4.14,4.14,0,0,0-3.57-2.06c-1.76.1-16.25,0-23.21,0v0H34v0c-7,0-21.45.08-23.22,0a4.16,4.16,0,0,0-3.57,2.06L2.13,18.33l31.73,1v.12l2-.06,2,.06Z"/><path class="cls-8" d="M37.84,19.64h0l-2-.06-2,.06a.22.22,0,0,1-.15-.06.16.16,0,0,1,0-.07l-31.54-1a.21.21,0,0,1-.19-.11.24.24,0,0,1,0-.22L7,11.07A4.32,4.32,0,0,1,10.8,8.92c.68,0,3.38.06,8,.06,4.9,0,10.9,0,15.11,0l.08,0h3.7l.09,0C42,9,48,9,52.89,9c4.63,0,7.33,0,8-.06a4.32,4.32,0,0,1,3.77,2.17l5.07,7.12a.22.22,0,0,1,0,.22.19.19,0,0,1-.18.11L38,19.51a.16.16,0,0,1,0,.07A.2.2,0,0,1,37.84,19.64Zm-2-.48,1.81.06a.2.2,0,0,1,.18-.12l31.34-1-4.86-6.83a4,4,0,0,0-3.38-2c-.7,0-3.4.06-8,.06-4.93,0-11,0-15.19,0l-.08,0H34.07l-.07,0c-4.21,0-10.26,0-15.19,0-4.64,0-7.34,0-8-.06A4,4,0,0,0,7.4,11.29L2.53,18.14l31.34,1a.21.21,0,0,1,.18.12Z"/><path class="cls-14" d="M69.57,18.33l-5.09-7.14a4.14,4.14,0,0,0-3.57-2.06l-1.2,0a8.75,8.75,0,0,1,.37,3.34c-.28,1.81-1.9,2.51-3.52,2.87-5.71,1.29-11.76.88-17.58,1-6.76.16-13.53.32-20.29.37-3,0-6,0-9,.24A44.75,44.75,0,0,1,3,17.18l-.82,1.15,31.73,1v.12l2-.06,2,.06v-.12Z"/><rect class="cls-8" x="0.21" y="17.16" width="71.28" height="6.18"/><path class="cls-8" d="M71.49,23.55H.21a.2.2,0,0,1-.21-.2V17.16A.2.2,0,0,1,.21,17H71.49a.2.2,0,0,1,.21.2v6.19A.2.2,0,0,1,71.49,23.55ZM.42,23.14H71.28V17.37H.42Z"/><rect class="cls-16" x="0.21" y="17.11" width="71.28" height="0.82"/><path class="cls-16" d="M13,9.65c-3.61,0-4.74,1.95-4.74,1.95l-3.6,4.67H16.68s-6.39,0-6.38,0C12,12.43,13.05,11.33,17.87,11c3.84-.28,37.48-1.06,41.32-1.33,0,0-22.48,0-22.44,0Z"/></g></g></svg>